<svg id="Layer_1" data-name="Layer 1" xmlns="http://www.w3.org/2000/svg" viewBox="0 0 100 100"><defs><style>.cls-1{fill:#630;}.cls-2{fill:#fff;}</style></defs><title>cc-logo-bb</title><rect class="cls-1" width="100" height="100"/><path class="cls-2" d="M93.5,93.5H6.5V6.5h87Zm-85-2h83V8.5H8.5Z"/><path class="cls-2" d="M58.45,47.29a11.05,11.05,0,0,0-2.27,1.33q-1.1.82-2.22,1.8t-2.33,2.07Q50.42,53.58,49,54.64a30.63,30.63,0,0,1-3,2,22.36,22.36,0,0,1-3.64,1.7,26.47,26.47,0,0,1-4.4,1.16,30.23,30.23,0,0,1-5.32.43,12.78,12.78,0,0,1-5.82-1.3,13.73,13.73,0,0,1-4.43-3.51A15.91,15.91,0,0,1,19.54,50a19,19,0,0,1-1-6.15A25.37,25.37,0,0,1,19,39.13,37.24,37.24,0,0,1,20.4,34a43.49,43.49,0,0,1,2.19-5.22,41.2,41.2,0,0,1,2.93-5,34.8,34.8,0,0,1,3.6-4.43,26.47,26.47,0,0,1,4.18-3.56A20,20,0,0,1,38,13.4a15.39,15.39,0,0,1,5.11-.86,10.66,10.66,0,0,1,3.49.61A9.21,9.21,0,0,1,49.76,15a9.75,9.75,0,0,1,2.31,3.2A10.78,10.78,0,0,1,53,22.8a12,12,0,0,1-.56,3.57,16.38,16.38,0,0,1-1.54,3.46A18.9,18.9,0,0,1,48.55,33a16.87,16.87,0,0,1-2.86,2.52,14.53,14.53,0,0,1-3.18,1.68,9.27,9.27,0,0,1-3.3.62A7,7,0,0,1,36,37.19a1.83,1.83,0,0,1-1.08-1.68q0-.19,0-.45c0-.17,0-.36,0-.55a8.68,8.68,0,0,1,0-.9,3.36,3.36,0,0,1,.19-.85,1.5,1.5,0,0,1,.42-.62,1.11,1.11,0,0,1,.75-.24,1.38,1.38,0,0,1,.5.08l.48.18a5.27,5.27,0,0,0,.63.18,4.41,4.41,0,0,0,.94.08,7.83,7.83,0,0,0,3.09-.67,9.21,9.21,0,0,0,2.82-1.89A10,10,0,0,0,46.8,27a8.55,8.55,0,0,0,.8-3.72,7.15,7.15,0,0,0-.29-2,4.42,4.42,0,0,0-.93-1.7,4.65,4.65,0,0,0-1.66-1.17,6.19,6.19,0,0,0-2.47-.44,8,8,0,0,0-3.36.75,13.5,13.5,0,0,0-3.14,2,19.91,19.91,0,0,0-2.86,3.06,33.55,33.55,0,0,0-2.5,3.79,39.62,39.62,0,0,0-2.07,4.21,42.32,42.32,0,0,0-1.57,4.36,36,36,0,0,0-1,4.22,22.58,22.58,0,0,0-.35,3.76A13.59,13.59,0,0,0,26,48.38a8.29,8.29,0,0,0,1.73,3,6.9,6.9,0,0,0,2.75,1.82,10.53,10.53,0,0,0,3.66.6,16.88,16.88,0,0,0,4.72-.63,22.87,22.87,0,0,0,4.17-1.66,34.45,34.45,0,0,0,3.84-2.32l3.7-2.59q1.85-1.3,3.78-2.49a23.91,23.91,0,0,1,4.07-2Z"/><path class="cls-2" d="M81.45,74.79a11.05,11.05,0,0,0-2.27,1.33q-1.1.82-2.22,1.8T74.63,80Q73.42,81.08,72,82.14a30.63,30.63,0,0,1-3,2,22.36,22.36,0,0,1-3.64,1.7A26.47,26.47,0,0,1,60.94,87a30.23,30.23,0,0,1-5.32.43,12.78,12.78,0,0,1-5.82-1.3,13.73,13.73,0,0,1-4.43-3.51,15.91,15.91,0,0,1-2.83-5.14,19,19,0,0,1-1-6.15A25.37,25.37,0,0,1,42,66.63a37.24,37.24,0,0,1,1.37-5.14,43.49,43.49,0,0,1,2.19-5.22,41.2,41.2,0,0,1,2.93-5,34.8,34.8,0,0,1,3.6-4.43,26.47,26.47,0,0,1,4.18-3.56A20,20,0,0,1,61,40.9,15.39,15.39,0,0,1,66.09,40a10.66,10.66,0,0,1,3.49.61,9.21,9.21,0,0,1,3.18,1.88,9.75,9.75,0,0,1,2.31,3.2A10.78,10.78,0,0,1,76,50.3a12,12,0,0,1-.56,3.57,16.38,16.38,0,0,1-1.54,3.46,18.9,18.9,0,0,1-2.31,3.12A16.87,16.87,0,0,1,68.69,63a14.53,14.53,0,0,1-3.18,1.68,9.27,9.27,0,0,1-3.3.62A7,7,0,0,1,59,64.69,1.83,1.83,0,0,1,57.89,63q0-.19,0-.45c0-.17,0-.36,0-.55a8.68,8.68,0,0,1,0-.9,3.36,3.36,0,0,1,.19-.85,1.5,1.5,0,0,1,.42-.62,1.11,1.11,0,0,1,.75-.24,1.38,1.38,0,0,1,.5.08l.48.18a5.27,5.27,0,0,0,.63.18,4.41,4.41,0,0,0,.94.08,7.83,7.83,0,0,0,3.09-.67,9.21,9.21,0,0,0,2.82-1.89,10,10,0,0,0,2.06-2.9,8.55,8.55,0,0,0,.8-3.72,7.15,7.15,0,0,0-.29-2,4.42,4.42,0,0,0-.93-1.7,4.65,4.65,0,0,0-1.66-1.17,6.19,6.19,0,0,0-2.47-.44,8,8,0,0,0-3.36.75,13.5,13.5,0,0,0-3.14,2,19.91,19.91,0,0,0-2.86,3.06A33.55,33.55,0,0,0,53.4,55a39.62,39.62,0,0,0-2.07,4.21,42.32,42.32,0,0,0-1.57,4.36,36,36,0,0,0-1,4.22,22.58,22.58,0,0,0-.35,3.76A13.59,13.59,0,0,0,49,75.88a8.29,8.29,0,0,0,1.73,3,6.9,6.9,0,0,0,2.75,1.82,10.53,10.53,0,0,0,3.66.6,16.88,16.88,0,0,0,4.72-.63A22.87,22.87,0,0,0,66.06,79a34.45,34.45,0,0,0,3.84-2.32l3.7-2.59q1.85-1.3,3.78-2.49a23.91,23.91,0,0,1,4.07-2Z"/></svg>