<svg id="Layer_1" data-name="Layer 1" xmlns="http://www.w3.org/2000/svg" viewBox="0 0 100 100"><defs><style>.cls-1{fill:#fff;}</style></defs><title>directions-alt</title><path class="cls-1" d="M100,48.85v2.6c-.57,1.6-1.86,2.64-3,3.79L54.58,97.66A8.24,8.24,0,0,1,51.36,100h-2.7a8.94,8.94,0,0,1-3-2.17q-22-22-44-44A8.22,8.22,0,0,1,1,53.1,4.88,4.88,0,0,1,.11,49a5.13,5.13,0,0,1,1.54-2.67q22-22,44-44A7.32,7.32,0,0,1,49.26,0h1.6a7.89,7.89,0,0,1,3.82,2.52Q76.07,24,97.49,45.34A8.44,8.44,0,0,1,100,48.85ZM60.06,27.7q0,5.85,0,11.71c0,.65,0,.65-.63.65H35.55a7.44,7.44,0,0,0-2,.23A5.16,5.16,0,0,0,30,45.24c.05,6.44,0,12.88,0,19.31,0,.47.15.54.57.54,2.94,0,5.87,0,8.81,0,.52,0,.63-.14.63-.64,0-4.62,0-9.24,0-13.86,0-.43.09-.56.55-.56q9.51,0,19,0c.41,0,.53.1.52.52,0,3.79,0,7.57,0,11.36,0,.17-.08.36.08.52l.19-.17Q68.8,53.8,77.25,45.35c.26-.26.18-.38,0-.58-1.2-1.18-2.39-2.38-3.58-3.57L60.17,27.71C60.14,27.64,60.1,27.63,60.06,27.7Z"/></svg>