<?xml version="1.0" encoding="utf-8"?>
<!-- Generator: Adobe Illustrator 21.0.0, SVG Export Plug-In . SVG Version: 6.00 Build 0)  -->
<svg version="1.1" id="Layer_1" xmlns="http://www.w3.org/2000/svg" xmlns:xlink="http://www.w3.org/1999/xlink" x="0px" y="0px"
	 viewBox="0 0 719.8 148.3" style="enable-background:new 0 0 719.8 148.3;" xml:space="preserve">
<style type="text/css">
	.st0{fill:#FFCC00;}
</style>
<title>rating-5</title>
<g>
	<polygon class="st0" points="63.1,14.2 82.6,53.7 126.1,60 94.6,90.7 102.1,134.1 63.1,113.7 24.1,134.1 31.5,90.7 0,60 43.6,53.7 
			"/>
	<polygon class="st0" points="211.5,14.2 231,53.7 274.6,60 243,90.7 250.5,134.1 211.5,113.7 172.5,134.1 179.9,90.7 148.4,60 
		192,53.7 	"/>
	<polygon class="st0" points="359.9,14.2 379.4,53.7 423,60 391.4,90.7 398.9,134.1 359.9,113.7 320.9,134.1 328.3,90.7 296.8,60 
		340.4,53.7 	"/>
	<polygon class="st0" points="508.3,14.2 527.8,53.7 571.4,60 539.8,90.7 547.3,134.1 508.3,113.7 469.3,134.1 476.8,90.7 445.2,60 
		488.8,53.7 	"/>
	<polygon class="st0" points="656.7,14.2 676.2,53.7 719.8,60 688.2,90.7 695.7,134.1 656.7,113.7 617.7,134.1 625.2,90.7 593.6,60 
		637.2,53.7 	"/>
</g>
</svg>
