<?xml version="1.0" encoding="utf-8"?>
<!-- Generator: Adobe Illustrator 21.0.0, SVG Export Plug-In . SVG Version: 6.00 Build 0)  -->
<svg version="1.1" id="Layer_1" xmlns="http://www.w3.org/2000/svg" xmlns:xlink="http://www.w3.org/1999/xlink" x="0px" y="0px"
	 viewBox="0 0 719.8 148.3" style="enable-background:new 0 0 719.8 148.3;" xml:space="preserve">
<style type="text/css">
	.st0{fill:#FFCC00;}
</style>
<title>rating-5</title>
<g>
	<polygon class="st0" points="63.1,14.2 82.6,53.7 126.1,60 94.6,90.7 102.1,134.1 63.1,113.7 24.1,134.1 31.5,90.7 0,60 43.6,53.7 
			"/>
	<polygon class="st0" points="211.5,14.2 231,53.7 274.6,60 243,90.7 250.5,134.1 211.5,113.7 172.5,134.1 179.9,90.7 148.4,60 
		192,53.7 	"/>
	<polygon class="st0" points="359.9,14.2 379.4,53.7 423,60 391.4,90.7 398.9,134.1 359.9,113.7 320.9,134.1 328.3,90.7 296.8,60 
		340.4,53.7 	"/>
	<polygon class="st0" points="508.3,14.2 527.8,53.7 571.4,60 539.8,90.7 547.3,134.1 508.3,113.7 469.3,134.1 476.8,90.7 445.2,60 
		488.8,53.7 	"/>
	<g>
		<path class="st0" d="M656.7,25.5l15,30.4l1.2,2.4l2.6,0.4l33.6,4.9l-24.3,23.7l-1.9,1.8l0.4,2.6L689,125l-30-15.8l-2.3-1.2
			l-2.3,1.2l-30,15.8l5.7-33.4l0.4-2.6l-1.9-1.8l-24.3-23.7l33.6-4.9l2.6-0.4l1.2-2.4L656.7,25.5 M656.7,14.2l-19.5,39.5L593.6,60
			l31.5,30.7l-7.4,43.4l39-20.5l39,20.5l-7.4-43.4L719.8,60l-43.6-6.3L656.7,14.2L656.7,14.2z"/>
	</g>
</g>
</svg>
